<svg width="7" height="8" viewBox="0 0 7 8" fill="none" xmlns="http://www.w3.org/2000/svg">
<path d="M3.352 7.144C2.864 7.144 2.424 7.072 2.032 6.928C1.648 6.776 1.32 6.56 1.048 6.28C0.784 6 0.58 5.66 0.436 5.26C0.292 4.86 0.22 4.408 0.22 3.904C0.22 3.4 0.292 2.948 0.436 2.548C0.58 2.148 0.784 1.808 1.048 1.528C1.32 1.248 1.648 1.036 2.032 0.892C2.424 0.74 2.86 0.664 3.34 0.664C4.02 0.664 4.564 0.804 4.972 1.084C5.388 1.356 5.704 1.72 5.92 2.176L4.552 2.92C4.44 2.68 4.292 2.48 4.108 2.32C3.932 2.16 3.676 2.08 3.34 2.08C2.932 2.08 2.616 2.2 2.392 2.44C2.176 2.672 2.068 2.992 2.068 3.4V4.408C2.068 4.816 2.176 5.14 2.392 5.38C2.616 5.612 2.94 5.728 3.364 5.728C3.708 5.728 3.976 5.648 4.168 5.488C4.368 5.328 4.536 5.12 4.672 4.864L6.016 5.632C5.792 6.088 5.464 6.456 5.032 6.736C4.608 7.008 4.048 7.144 3.352 7.144Z" fill="black"/>
</svg>
